<svg xmlns="http://www.w3.org/2000/svg" viewBox="0 0 64 64">
  <path fill="#F28AB2" d="M32 4c-3 0-5.6 1.6-7 4C23.3 5.6 20.6 4 17.5 4 12.3 4 8 8.7 8 14c0 2.6.9 5 2.4 6.9C8.9 23.6 8 26.2 8 29c0 2.8.9 5.4 2.4 7.5C8.9 38.6 8 41.2 8 44c0 5.3 4.3 10 9.5 10 3.1 0 5.8-1.6 7.5-4 1.4 2.4 4 4 7 4s5.6-1.6 7-4c1.7 2.4 4.4 4 7.5 4C51.7 54 56 49.3 56 44c0-2.8-.9-5.4-2.4-7.5C55.1 34.4 56 31.8 56 29c0-2.8-.9-5.4-2.4-7.5C55.1 18.4 56 15.8 56 13c0-5.3-4.3-10-9.5-10-3.1 0-5.8 1.6-7.5 4-1.4-2.4-4-4-7-4z"></path>
  <path fill="#E0648F" d="M32 4v56c3 0 5.6-1.6 7-4 1.7 2.4 4.4 4 7.5 4C51.7 60 56 55.3 56 50c0-2.8-.9-5.4-2.4-7.5C55.1 40.4 56 37.8 56 35c0-2.8-.9-5.4-2.4-7.5C55.1 26.4 56 23.8 56 21c0-5.3-4.3-10-9.5-10-3.1 0-5.8 1.6-7.5 4-1.4-2.4-4-4-7-4z"></path>
</svg>
